<?xml version="1.0" encoding="UTF-8"?>
<svg version="1.1" xmlns="http://www.w3.org/2000/svg" width="300" height="284">
<path d="M0 0 C67.98 0 135.96 0 206 0 C206 8.25 206 16.5 206 25 C146.27 25 86.54 25 25 25 C24.67 85.06 24.34 145.12 24 207 C16.08 207 8.16 207 0 207 C0 138.69 0 70.38 0 0 Z " fill="#0013FF" transform="translate(78,75)"/>
<path d="M0 0 C43.23 0 86.46 0 131 0 C131 8.25 131 16.5 131 25 C95.855 25.495 95.855 25.495 60 26 C61.65 27.65 63.3 29.3 65 31 C65 31.66 65 32.32 65 33 C65.58426758 33.25974609 66.16853516 33.51949219 66.77050781 33.78710938 C69.15561164 35.084656 70.75190637 36.49341122 72.671875 38.40625 C73.33574219 39.06753906 73.99960938 39.72882813 74.68359375 40.41015625 C75.36550781 41.09980469 76.04742187 41.78945312 76.75 42.5 C77.44738281 43.18964844 78.14476562 43.87929687 78.86328125 44.58984375 C79.52199219 45.25113281 80.18070312 45.91242188 80.859375 46.59375 C81.46233398 47.19896484 82.06529297 47.80417969 82.68652344 48.42773438 C84 50 84 50 84 52 C84.598125 52.268125 85.19625 52.53625 85.8125 52.8125 C87.99847854 53.99917406 89.41332594 55.09599113 91 57 C91 57.66 91 58.32 91 59 C92.32 59.66 93.64 60.32 95 61 C95 61.66 95 62.32 95 63 C96.98 63.99 96.98 63.99 99 65 C99 65.66 99 66.32 99 67 C99.8971875 67.4021875 99.8971875 67.4021875 100.8125 67.8125 C102.99847854 68.99917406 104.41332594 70.09599113 106 72 C106 72.66 106 73.32 106 74 C106.8708725 74.38436974 106.8708725 74.38436974 107.75933838 74.77650452 C110.21700767 76.11849531 111.86529054 77.60473901 113.85058594 79.57592773 C114.59105164 80.30686142 115.33151733 81.0377951 116.09442139 81.7908783 C116.88310608 82.5804744 117.67179077 83.3700705 118.484375 84.18359375 C119.29996887 84.9949025 120.11556274 85.80621124 120.95587158 86.6421051 C122.67641806 88.35691258 124.39435498 90.07434175 126.10986328 91.79418945 C128.74514298 94.43263714 131.39347964 97.05747137 134.04296875 99.68164062 C135.71174767 101.34814745 137.37974371 103.01543868 139.046875 104.68359375 C139.84365662 105.47116562 140.64043823 106.25873749 141.46136475 107.07017517 C142.1892218 107.80426102 142.91707886 108.53834686 143.66699219 109.29467773 C144.31222839 109.93928452 144.9574646 110.5838913 145.62225342 111.24803162 C147 113 147 113 147 116 C134.56860237 117.89964855 119.42990026 120.18185691 108.37422734 112.88997018 C100.67846492 107.16396046 94.13501658 100.05663881 87.63408351 93.0459466 C84.58775327 89.79775292 81.44552431 86.64481462 78.31361389 83.47946167 C72.42295431 77.49732271 66.62209045 71.43561632 60.84975582 65.33946788 C54.26690737 58.39688419 47.5814295 51.55676538 40.88895214 44.72008348 C31.04319657 34.65507451 21.23297242 24.55512709 11.52608299 14.35597992 C10.47793451 13.25547794 9.42815624 12.1565257 8.37667465 11.05920792 C6.9480011 9.56697707 5.52593534 8.06876097 4.1058197 6.56838989 C3.30800551 5.72955828 2.51019133 4.89072666 1.68820095 4.02647591 C0 2 0 2 0 0 Z " fill="#0013FF" transform="translate(153,166)"/>
<path d="M0 0 C2.97 0 5.94 0 9 0 C11.3828125 2.421875 11.3828125 2.421875 13.125 5.75 C13.44210938 6.32967529 13.75921875 6.90935059 14.0859375 7.5065918 C14.74654042 8.71589491 15.39390232 9.93251847 16.02832031 11.15576172 C17.58167954 14.10402192 19.29912394 16.94696784 21 19.8125 C21.99 21.524375 22.98 23.23625 24 25 C24.33 16.75 24.66 8.5 25 0 C27.97 0 30.94 0 34 0 C34 14.19 34 28.38 34 43 C25 43 25 43 23.125 41.59375 C22.75375 40.9028125 22.3825 40.211875 22 39.5 C21.54367188 38.69691406 21.08734375 37.89382812 20.6171875 37.06640625 C20.08351562 36.05449219 19.54984375 35.04257812 19 34 C17.83793199 31.9429887 16.66346229 29.89332717 15.48876953 27.84350586 C13.6362486 24.57522914 11.82211369 21.2853262 10 18 C9.67 26.25 9.34 34.5 9 43 C6.03 43 3.06 43 0 43 C0 28.81 0 14.62 0 0 Z " fill="#000000" transform="translate(134,2)"/>
<path d="M0 0 C3.50625 -0.0825 7.0125 -0.165 10.625 -0.25 C11.71893066 -0.28641602 12.81286133 -0.32283203 13.93994141 -0.36035156 C19.97825817 -0.42903174 23.42044691 -0.04428065 28 4 C30.96716779 7.56060135 31.47550585 10.5741543 31.2890625 15.07421875 C30.70457842 18.96814644 28.93871365 21.27162774 25.890625 23.63671875 C25.26671875 24.08660156 24.6428125 24.53648438 24 25 C24.58910156 26.12019531 25.17820312 27.24039062 25.78515625 28.39453125 C26.54479489 29.86691725 27.3038809 31.33958845 28.0625 32.8125 C28.45244141 33.55048828 28.84238281 34.28847656 29.24414062 35.04882812 C29.60830078 35.76103516 29.97246094 36.47324219 30.34765625 37.20703125 C30.68804932 37.8616333 31.02844238 38.51623535 31.37915039 39.19067383 C32 41 32 41 31 44 C28.03 43.67 25.06 43.34 22 43 C21.56429688 41.85660156 21.12859375 40.71320312 20.6796875 39.53515625 C20.07937922 38.04376538 19.47774735 36.55290679 18.875 35.0625 C18.59140625 34.30775391 18.3078125 33.55300781 18.015625 32.77539062 C17.71914063 32.05673828 17.42265625 31.33808594 17.1171875 30.59765625 C16.85534668 29.93258057 16.59350586 29.26750488 16.32373047 28.58227539 C14.68863821 26.27895755 14.68863821 26.27895755 9 26 C9 31.61 9 37.22 9 43 C6.03 43 3.06 43 0 43 C0 28.81 0 14.62 0 0 Z M9 8 C9 11.63 9 15.26 9 19 C14.39449293 19.27429625 17.51925805 19.36055646 22 16 C21.81535634 11.65815798 21.81535634 11.65815798 20 8 C16.3308423 7.85689713 12.67284559 7.95778338 9 8 Z " fill="#000000" transform="translate(0,2)"/>
<path d="M0 0 C9.57 0 19.14 0 29 0 C29 2.64 29 5.28 29 8 C22.4 8 15.8 8 9 8 C9 10.97 9 13.94 9 17 C13.62 17 18.24 17 23 17 C23 19.64 23 22.28 23 25 C18.38 25 13.76 25 9 25 C9 28.63 9 32.26 9 36 C15.6 36 22.2 36 29 36 C29 38.31 29 40.62 29 43 C19.43 43 9.86 43 0 43 C0 28.81 0 14.62 0 0 Z " fill="#000000" transform="translate(40,2)"/>
<path d="M0 0 C2.97 0 5.94 0 9 0 C9.23710693 0.83772949 9.47421387 1.67545898 9.71850586 2.53857422 C10.59842624 5.64384579 11.48012461 8.74860531 12.36303711 11.85302734 C12.74493736 13.19722535 13.12612641 14.54162563 13.5065918 15.88623047 C14.05330771 17.8179125 14.60278682 19.74881181 15.15234375 21.6796875 C15.48226318 22.84226074 15.81218262 24.00483398 16.15209961 25.20263672 C16.89023372 27.92091292 16.89023372 27.92091292 18 30 C18.3556604 28.74340576 18.3556604 28.74340576 18.71850586 27.46142578 C19.59842624 24.35615421 20.48012461 21.25139469 21.36303711 18.14697266 C21.74493736 16.80277465 22.12612641 15.45837437 22.5065918 14.11376953 C23.05330771 12.1820875 23.60278682 10.25118819 24.15234375 8.3203125 C24.48226318 7.15773926 24.81218262 5.99516602 25.15209961 4.79736328 C26 2 26 2 27 0 C29.97 0 32.94 0 36 0 C33.99479452 8.50278524 31.59849555 16.85283873 28.98339844 25.18554688 C28.36517005 27.15633592 27.75255699 29.12881031 27.140625 31.1015625 C24.13955185 40.72089629 24.13955185 40.72089629 23 43 C19.7 43 16.4 43 13 43 C10.83458321 38.14952928 9.04921365 33.29289544 7.51953125 28.203125 C7.30181564 27.48767517 7.08410004 26.77222534 6.85978699 26.03509521 C6.40495068 24.53652916 5.95211819 23.03735355 5.5012207 21.53759766 C4.80967245 19.24060824 4.10934756 16.94641982 3.40820312 14.65234375 C2.9656198 13.1902633 2.52354431 11.728029 2.08203125 10.265625 C1.87270462 9.58123352 1.66337799 8.89684204 1.44770813 8.19171143 C0.59775035 5.3461039 0 2.98891474 0 0 Z " fill="#000000" transform="translate(251,2)"/>
<path d="M0 0 C9.24 0 18.48 0 28 0 C28 2.64 28 5.28 28 8 C21.73 8 15.46 8 9 8 C9 10.97 9 13.94 9 17 C13.62 17 18.24 17 23 17 C23 19.64 23 22.28 23 25 C18.38 25 13.76 25 9 25 C9 30.94 9 36.88 9 43 C6.03 43 3.06 43 0 43 C0 28.81 0 14.62 0 0 Z " fill="#000000" transform="translate(78,2)"/>
<path d="M0 0 C10.23 0 20.46 0 31 0 C31 2.64 31 5.28 31 8 C27.37 8 23.74 8 20 8 C20 19.55 20 31.1 20 43 C17.03 43 14.06 43 11 43 C11 31.45 11 19.9 11 8 C7.37 8 3.74 8 0 8 C0 5.36 0 2.72 0 0 Z " fill="#000000" transform="translate(196,2)"/>
<path d="M0 0 C2.97 0 5.94 0 9 0 C9 14.19 9 28.38 9 43 C6.03 43 3.06 43 0 43 C0 28.81 0 14.62 0 0 Z " fill="#000000" transform="translate(235,2)"/>
<path d="M0 0 C2.97 0 5.94 0 9 0 C9 14.19 9 28.38 9 43 C6.03 43 3.06 43 0 43 C0 28.81 0 14.62 0 0 Z " fill="#000000" transform="translate(179,2)"/>
<path d="M0 0 C2.97 0 5.94 0 9 0 C9 14.19 9 28.38 9 43 C6.03 43 3.06 43 0 43 C0 28.81 0 14.62 0 0 Z " fill="#000000" transform="translate(114,2)"/>
<path d="M0 0 C2.97 0 5.94 0 9 0 C9.33 0.66 9.66 1.32 10 2 C10.33 1.34 10.66 0.68 11 0 C11.99 0 12.98 0 14 0 C14 2.64 14 5.28 14 8 C11.36 8 8.72 8 6 8 C6 6.02 6 4.04 6 2 C5.34 2 4.68 2 4 2 C4 3.98 4 5.96 4 8 C3.34 8 2.68 8 2 8 C2 6.02 2 4.04 2 2 C1.34 2 0.68 2 0 2 C0 1.34 0 0.68 0 0 Z " fill="#000000" transform="translate(283,37)"/>
</svg>
